# xmcd
#
# Track frame offsets:
#	150
#	14774
#	28497
#	47589
#	64076
#	81120
#	98034
#	113187
#	128029
#	144332
#	159862
#	177312
#	190863
#	207319
#	220950
#	237620
#	253937
#	271102
#	286097
#	301220
#	315614
#	330881
#
# Disc length: 4658 seconds
#
# Revision: 1
# Processed by: cddbd v1.5.2PL0 Copyright (c) Steve Scherf et al.
# Submitted via: audiograbber 1.83.01
#
DISCID=3a123016
DTITLE=Various Artist - Hit Country 2015
DYEAR=2014
DGENRE=Country
TTITLE0=Lee Kernaghan - It's Only Country
TTITLE1=The Wolfe Brothers - That Kinda Night
TTITLE2=Dierks Bentley - Drunk On A Plane (Album Version)
TTITLE3=Maddie and Tae - Girl In A Country Song
TTITLE4=The Band Perry - Chainsaw (Radio Edit)
TTITLE5=The McClymonts - Here's To You And I
TTITLE6=Jasmine Rae (feat. Kellie Pickler) - Bad Boys Get Me Good
TTITLE7=Blackjack Billy - Got A Feeling (Radio Version)
TTITLE8=Morgan Evans - One Eye For An Eye
TTITLE9=McAlister Kemp - Fight Me
TTITLE10=Billy Currington - We Are Tonight (Album Version)
TTITLE11=Brett Eldredge - Beat Of The Music
TTITLE12=Dan and Shay - 19 You and Me
TTITLE13=Jared Porter - Deep End
TTITLE14=Cassadee Pope - I Wish I Could Break Your Heart
TTITLE15=Adam Brand - What Your Love Looks Like
TTITLE16=The Viper Creek Band - Missin' Me
TTITLE17=O'Shea - It Never Goes Away
TTITLE18=Kacey Musgraves - Follow Your Arrow (Album Version)
TTITLE19=Sara Storer - Canoe
TTITLE20=Jenny Queen (feat. Shane Nicholson) - Let Her Go
TTITLE21=Adam Eckersley Band - Tomorrow Night, Same Again
EXTD=
EXTT0=
EXTT1=
EXTT2=
EXTT3=
EXTT4=
EXTT5=
EXTT6=
EXTT7=
EXTT8=
EXTT9=
EXTT10=
EXTT11=
EXTT12=
EXTT13=
EXTT14=
EXTT15=
EXTT16=
EXTT17=
EXTT18=
EXTT19=
EXTT20=
EXTT21=
PLAYORDER=
